<svg width="40" height="80" viewBox="0 0 40 80" fill="none" xmlns="http://www.w3.org/2000/svg">
<path d="M3.51081e-07 0C10.6087 1.26507e-07 20.7828 4.21427 28.2843 11.7157C35.7857 19.2172 40 29.3913 40 40C40 50.6086 35.7857 60.7828 28.2843 68.2842C20.7828 75.7857 10.6087 80 4.35839e-05 80L1.14124e-05 50.559C2.80043 50.559 5.48614 49.4465 7.46633 47.4663C9.44653 45.4861 10.559 42.8004 10.559 40C10.559 37.1996 9.44652 34.5139 7.46633 32.5337C5.48613 30.5535 2.80042 29.441 0 29.441L3.51081e-07 0Z" fill="#F2F2F2"/>
</svg>
