<svg width="85" height="32" viewBox="0 0 85 32" fill="none" xmlns="http://www.w3.org/2000/svg">
<path d="M4.0457 2.73489C6.33174 2.18156 8.93486 3.69489 9.43291 6.03323C9.76826 7.07156 9.55908 8.19156 9.13242 9.16989C8.40029 10.7299 6.68369 11.7216 4.98037 11.6882C3.98926 11.7366 3.05127 11.2966 2.26768 10.7249C1.14873 9.91323 0.566016 8.51989 0.494629 7.16656C0.556055 5.92156 1.06572 4.67656 1.97217 3.81156C2.57812 3.31656 3.29199 2.94323 4.0457 2.73489Z" fill="black"/>
<path d="M25.4667 2.73142C28.0848 2.43642 30.7942 2.84642 33.1499 4.05142C35.9888 5.46475 38.2665 7.93975 39.4735 10.8764C40.1458 12.4981 40.4131 14.2564 40.5127 15.9998C40.4131 17.6998 40.1608 19.4164 39.5216 21.0031C38.8808 22.6664 37.8249 24.1364 36.6412 25.4514C34.757 27.2631 32.3912 28.6048 29.8147 29.0948C25.8867 29.9048 21.5853 28.8714 18.5522 26.2081C17.8616 25.5131 17.1327 24.8498 16.5235 24.0781C13.5236 20.1148 13.0089 14.4314 15.2667 9.99642C15.886 8.73975 16.6795 7.56642 17.7171 6.61975C19.7375 4.45142 22.5415 3.09809 25.4667 2.73142ZM26.6288 11.3864C24.3893 11.6064 22.4353 13.7098 22.5548 15.9998C22.417 18.5548 24.8608 20.8281 27.3693 20.6531C28.7406 20.5081 30.0936 19.8298 30.8855 18.6714C31.7952 17.4848 31.9563 15.8181 31.4566 14.4281C30.7942 12.4698 28.6658 11.1398 26.6288 11.3864Z" fill="black"/>
<path d="M48.0415 2.73504C49.124 2.52504 50.2911 2.6317 51.249 3.21337C52.4609 3.78004 53.2245 5.01337 53.5068 6.29004C53.8089 7.3767 53.4669 8.53004 52.9539 9.49504C51.7769 11.54 48.9015 12.3167 46.8661 11.1184C45.362 10.3617 44.4988 8.6767 44.5154 7.0217C44.615 5.79004 45.1114 4.55504 46.056 3.7367C46.647 3.28504 47.3227 2.93004 48.0415 2.73504Z" fill="black"/>
<path d="M69.4627 2.73154C71.8733 2.46487 74.3619 2.77987 76.5831 3.78487C78.0524 4.42987 79.3739 5.37987 80.5526 6.46321C81.9554 7.97987 83.154 9.73821 83.7783 11.7265C84.1867 12.8949 84.3261 14.1299 84.4739 15.3515C84.5868 16.3299 84.3826 17.3015 84.2597 18.2682C83.8895 20.8649 82.6045 23.2515 80.8713 25.1882C78.3612 27.8532 74.7155 29.4282 71.0548 29.3465C68.0051 29.3799 64.962 28.2615 62.6328 26.2882C62.0385 25.7182 61.4575 25.1332 60.893 24.5332C57.6159 20.6365 56.9435 14.7982 59.1498 10.2182C59.779 8.92154 60.5577 7.67987 61.6301 6.70487C63.6406 4.47154 66.506 3.11487 69.4627 2.73154ZM70.6199 11.3865C68.7074 11.6199 66.9974 13.1232 66.6139 15.0332C66.5027 15.9682 66.4811 16.9682 66.8928 17.8382C67.6034 19.4715 69.2917 20.5882 71.0565 20.6765C73.5019 20.6732 75.8377 18.5249 75.7215 15.9999C75.8494 13.3482 73.2047 11.0215 70.6199 11.3865Z" fill="black"/>
<path d="M0.680347 16.0167C3.65701 15.9867 6.63533 15.9884 9.61199 16.015C9.64021 20.4484 9.64021 24.8834 9.61199 29.3167C6.63533 29.3467 3.65701 29.345 0.680347 29.3167C0.652124 24.885 0.652124 20.4484 0.680347 16.0167Z" fill="black"/>
<path d="M44.6746 16.0165C47.6512 15.9865 50.6295 15.9882 53.6062 16.0165C53.6328 20.4498 53.6361 24.8848 53.6062 29.3165C50.6295 29.3448 47.6496 29.3465 44.6729 29.3165C44.648 24.8848 44.6463 20.4498 44.6746 16.0165Z" fill="black"/>
</svg>
